<?xml version="1.0" standalone="no"?><!DOCTYPE svg PUBLIC "-//W3C//DTD SVG 1.1//EN" "http://www.w3.org/Graphics/SVG/1.1/DTD/svg11.dtd"><svg t="1549262617275" class="icon" style="" viewBox="0 0 1024 1024" version="1.1" xmlns="http://www.w3.org/2000/svg" p-id="3649" xmlns:xlink="http://www.w3.org/1999/xlink" width="200" height="200"><defs><style type="text/css"></style></defs><path d="M767.422259 970.482955h-510.844518c-84.532605 0-153.253356-68.720751-153.253356-153.253355v-613.013422c0-84.532605 68.720751-153.253356 153.253356-153.253356h25.542226c14.109039 0 25.542226 11.433187 25.542226 25.542226s-11.433187 25.542226-25.542226 25.542226h-25.542226c-56.314527 0-102.168904 45.854377-102.168904 102.168904v613.013422c0 56.314527 45.854377 102.168904 102.168904 102.168903h510.844518c56.314527 0 102.168904-45.854377 102.168904-102.168903v-613.013422c0-56.314527-45.854377-102.168904-102.168904-102.168904h-25.542226c-14.109039 0-25.542226-11.433187-25.542226-25.542226s11.433187-25.542226 25.542226-25.542226h25.542226c84.532605 0 153.253356 68.720751 153.253356 153.253356v613.013422c0 84.532605-68.720751 153.253356-153.253356 153.253355z" p-id="3650"></path><path d="M633.386388 102.047274H390.735242c-14.109039 0-25.542226-11.433187-25.542226-25.542226s11.433187-25.542226 25.542226-25.542226h242.651146c14.109039 0 25.542226 11.433187 25.542226 25.542226s-11.433187 25.542226-25.542226 25.542226zM770.70626 369.145979H253.41537c-14.109039 0-25.542226-11.433187-25.542226-25.542226s11.433187-25.542226 25.542226-25.542226H770.70626c14.109039 0 25.542226 11.433187 25.542226 25.542226s-11.433187 25.542226-25.542226 25.542226zM770.70626 536.265115H253.41537c-14.109039 0-25.542226-11.433187-25.542226-25.542226s11.433187-25.542226 25.542226-25.542226H770.70626c14.109039 0 25.542226 11.433187 25.542226 25.542226s-11.433187 25.542226-25.542226 25.542226zM770.70626 703.38425H253.41537c-14.109039 0-25.542226-11.433187-25.542226-25.542226s11.433187-25.542226 25.542226-25.542226H770.70626c14.109039 0 25.542226 11.433187 25.542226 25.542226s-11.433187 25.542226-25.542226 25.542226z" p-id="3651"></path></svg>