<?xml version="1.0" standalone="no"?><!DOCTYPE svg PUBLIC "-//W3C//DTD SVG 1.1//EN"
  "http://www.w3.org/Graphics/SVG/1.1/DTD/svg11.dtd">
<svg t="1549261916459" class="icon" style="" viewBox="0 0 1024 1024" version="1.1" xmlns="http://www.w3.org/2000/svg"
     p-id="2508" xmlns:xlink="http://www.w3.org/1999/xlink" width="200" height="200">
  <defs>
    <style type="text/css"></style>
  </defs>
  <path
    d="M734.7743312 825.52021222L273.28941852 825.52021222c-89.39004118 0-162.11259273-72.72255154-162.11259273-162.11391833L111.17682579 435.70073372c0-89.38209271 72.72255154-162.09934572 162.11259273-162.09934572l420.7183167 0c14.4909928 0 26.24116069 11.74751926 26.24116069 26.23851206 0 14.48966719-11.74884487 26.23718775-26.24116069 26.23718777L273.28941852 326.07708653c-60.45707069 0-109.63821851 49.17452367-109.63821851 109.62364719L163.65120001 663.40629519c0 60.45707069 49.18114782 109.63821851 109.63821851 109.63821851l461.48491268 0c60.45574637 0 109.6368942-49.18114782 109.6368942-109.63821851 0 0.01324701-0.15101695-274.7406807-0.15101695-378.14614276 0-51.29538384 14.41680799-90.79820626 42.86228515-117.42088422 38.43643227-35.96717561 87.89974284-33.14289569 90.00338177-32.98922882 14.46184886 0.96041406 25.40526957 13.45904385 24.4448555 27.91691849-0.95776414 14.46317317-13.36631478 25.3853997-27.91029433 24.44353119-0.08610621 0-29.58472651-1.15249635-51.10595017 19.34472553-17.13776045 16.32836334-25.82122801 42.8079728-25.82122801 78.70626214 0 103.39089073 0.15234126 378.13289574 0.15234126 378.13289575C896.88559962 752.79766068 824.16437238 825.52021222 734.7743312 825.52021222z"
    fill="#2c2c2c" p-id="2509"></path>
  <path
    d="M694.57206199 492.08432483L314.3090333 492.08432483c-14.48966719 0-26.23718775-11.74751926-26.23718776-26.23586215 0-14.4909928 11.74751926-26.23851207 26.23718776-26.23851207l380.2630274 0c14.48966719 0 26.23718775 11.74751926 26.23718776 26.23851207C720.80924846 480.33680427 709.0630535 492.08432483 694.57206199 492.08432483z"
    fill="#2c2c2c" p-id="2510"></path>
  <path
    d="M694.57206199 658.19356498L314.3090333 658.19356498c-14.48966719 0-26.23718775-11.74884487-26.23718776-26.23718775 0-14.4909928 11.74751926-26.23851207 26.23718776-26.23851208l380.2630274 0c14.48966719 0 26.23718775 11.74619495 26.23718776 26.23851208C720.80924846 646.4433958 709.0630535 658.19356498 694.57206199 658.19356498z"
    fill="#2c2c2c" p-id="2511"></path>
  <path
    d="M869.67475209 913.68622217m-52.47437422 0a51.27925002 51.27925002 0 1 0 104.94874843 0 51.27925002 51.27925002 0 1 0-104.94874843 0Z"
    fill="#2c2c2c" p-id="2512"></path>
  <path
    d="M150.09545156 913.68622217m-52.47437423 0a51.27925002 51.27925002 0 1 0 104.94874845 0 51.27925002 51.27925002 0 1 0-104.94874845 0Z"
    fill="#2c2c2c" p-id="2513"></path>
</svg>
